Coordinates
version=1
nRows=14
nColumns=42
inDegrees=yes

Units are S.I. units (second, meters, Newtons, ...)
If the header above contains a line with 'inDegrees', this indicates whether rotational values are in degrees (yes) or radians (no).

endheader
time	pelvis_tilt	pelvis_list	pelvis_rotation	pelvis_tx	pelvis_ty	pelvis_tz	hip_flexion_r	hip_adduction_r	hip_rotation_r	knee_angle_r	knee_adduction_r	knee_angle_r_beta	ankle_angle_r	subtalar_angle_r	mtp_angle_r	hip_flexion_l	hip_adduction_l	hip_rotation_l	knee_angle_l	knee_adduction_l	knee_angle_l_beta	ankle_angle_l	subtalar_angle_l	mtp_angle_l	lumbar_extension	lumbar_bending	lumbar_rotation	arm_flex_r	arm_add_r	arm_rot_r	elbow_flex_r	pro_sup_r	wrist_flex_r	wrist_dev_r	arm_flex_l	arm_add_l	arm_rot_l	elbow_flex_l	pro_sup_l	wrist_flex_l	wrist_dev_l
      0.50000000	      3.51105425	     -9.92493782	     -3.87614705	     -1.67239958	      0.83242369	      0.35272837	      6.08022317	      7.78268957	    -26.25158662	     20.78372970	     -2.53953114	      0.36274451	     15.69858090	     23.97901583	     -9.52977713	     -2.92872056	    -17.01288501	    -19.17403518	     42.53429780	     -8.41779592	      0.74236354	     19.05433391	     28.20409504	     -9.52977713	    -25.61541490	     10.80882946	      4.34377507	     -7.78565819	     -1.95778633	    -10.89341843	    105.47804114	     90.00000001	      0.00000000	      0.00000000	     -2.80523183	     -9.67437609	    -27.02216331	     45.45447373	     90.00000001	      0.00000000	      0.00000000
      0.51000000	      3.48106836	     -9.71189316	     -3.90257027	     -1.67021968	      0.83258537	      0.35392967	      5.88497765	      7.59441724	    -26.18021579	     20.73133860	     -2.38194019	      0.36183012	     15.95993923	     24.11134028	     -9.48897136	     -1.82474219	    -16.99593546	    -18.44112944	     44.51171632	     -8.65746714	      0.77687601	     17.58427869	     28.08641289	     -9.48897136	    -25.85552264	     10.63438370	      4.29529494	     -8.06576223	     -2.06555467	    -11.15313503	    105.46696118	     90.00000001	      0.00000000	      0.00000000	     -2.69231929	     -9.63451788	    -26.96317058	     45.70951010	     90.00000001	      0.00000000	      0.00000000
      0.52000000	      3.45646777	     -9.48825835	     -4.04484160	     -1.66815142	      0.83277605	      0.35521232	      5.73968613	      7.44145487	    -26.04421644	     20.72154003	     -2.37006085	      0.36165910	     16.13023544	     24.14240610	     -9.45530472	     -0.78229482	    -16.98497602	    -17.82728469	     46.42801548	     -8.76293254	      0.81032174	     16.44438194	     27.90484901	     -9.45530472	    -26.11658222	     10.39510535	      4.32327371	     -8.30600257	     -2.20231061	    -11.39638420	    105.30113511	     90.00000001	      0.00000000	      0.00000000	     -2.55289311	     -9.58434165	    -26.92785850	     45.97598849	     90.00000001	      0.00000000	      0.00000000
      0.53000000	      3.07800173	     -9.46310560	     -3.97687253	     -1.66634643	      0.83238790	      0.35627530	      5.99033485	      7.56047892	    -26.05317990	     20.65022526	     -2.40533963	      0.36041442	     16.42303374	     24.18010674	     -9.40465611	      0.92397191	    -17.32300088	    -16.84867052	     48.60528388	     -8.73102779	      0.84832224	     14.99613641	     27.39122275	     -9.40465611	    -25.99096462	     10.48250384	      4.26444735	     -8.58953840	     -2.31937740	    -11.77815370	    105.13985977	     90.00000001	      0.00000000	      0.00000000	     -2.46147438	     -9.44845707	    -26.91729924	     46.32952781	     90.00000001	      0.00000000	      0.00000000
      0.54000000	      2.86470953	     -9.34953925	     -3.98589856	     -1.66450586	      0.83221258	      0.35727524	      6.05884986	      7.51823408	    -25.95292655	     20.63221699	     -2.34050162	      0.36010012	     16.60974049	     24.15793725	     -9.35878206	      2.34721353	    -17.52902724	    -16.18304888	     50.55591225	     -8.71151504	      0.88236713	     14.09160870	     26.78976963	     -9.35878206	    -26.04849488	     10.43341021	      4.20147114	     -8.81342842	     -2.45570214	    -12.11191794	    104.99143177	     90.00000001	      0.00000000	      0.00000000	     -2.34663221	     -9.37288720	    -26.91820593	     46.61862276	     90.00000001	      0.00000000	      0.00000000
      0.55000000	      2.52837611	     -9.26678481	     -3.99949757	     -1.66288539	      0.83187706	      0.35824157	      6.32312378	      7.56975104	    -25.92336326	     20.62940869	     -2.44340414	      0.36005110	     16.78755655	     24.08042675	     -9.30126197	      3.94791440	    -17.80588526	    -15.49861233	     52.44015500	     -8.58268117	      0.91525337	     13.35933548	     25.89257460	     -9.30126197	    -25.99780424	     10.42332789	      4.18094333	     -8.98704202	     -2.59479093	    -12.38969774	    104.78786397	     90.00000001	      0.00000000	      0.00000000	     -2.19938445	     -9.25876752	    -26.90951302	     46.93464432	     90.00000001	      0.00000000	      0.00000000
      0.56000000	      2.47208648	     -9.08142546	     -4.02243999	     -1.66104939	      0.83195777	      0.35898633	      6.20405558	      7.37287897	    -25.78828213	     20.62686023	     -2.27760052	      0.36000663	     16.93253984	     23.97850387	     -9.26110105	      5.11005859	    -17.92094747	    -15.40188684	     53.91133299	     -8.70391554	      0.94093026	     12.96988886	     25.24239440	     -9.26110105	    -26.22865163	     10.29272448	      4.11910966	     -9.07579342	     -2.70567871	    -12.63175616	    104.68710147	     90.00000001	      0.00000000	      0.00000000	     -2.04641776	     -9.17664360	    -26.85937294	     47.18785275	     90.00000001	      0.00000000	      0.00000000
      0.57000000	      1.97915787	     -9.04486509	     -4.02029398	     -1.65968909	      0.83135866	      0.35973822	      6.70475821	      7.46809936	    -25.81701722	     20.70627916	     -2.44040619	      0.36139275	     17.07864982	     23.91501736	     -9.16112214	      6.95794360	    -18.31681563	    -14.81781184	     55.59318913	     -8.41964890	      0.97028419	     12.77044365	     23.74540037	     -9.16112214	    -26.02489202	     10.36962481	      4.10424595	     -9.15997431	     -2.82800144	    -12.80636413	    104.50703384	     90.00000001	      0.00000000	      0.00000000	     -1.89584460	     -9.02617887	    -26.82605829	     47.47128085	     90.00000001	      0.00000000	      0.00000000
      0.58000000	      1.96975290	     -8.89511818	     -4.02715585	     -1.65795253	      0.83149611	      0.36030110	      6.51389477	      7.28692808	    -25.77495301	     20.63564196	     -2.27216481	      0.36015990	     17.21769078	     23.92555900	     -9.12939730	      8.05863653	    -18.47211085	    -15.25772732	     56.59781803	     -8.81863187	      0.98781827	     12.75960273	     23.11572148	     -9.12939730	    -26.32653853	     10.26004236	      4.06439922	     -9.13502655	     -2.92604058	    -13.02665080	    104.45819218	     90.00000001	      0.00000000	      0.00000000	     -1.72304972	     -8.96489066	    -26.77242151	     47.74879761	     90.00000001	      0.00000000	      0.00000000
      0.59000000	      1.82085753	     -8.79288567	     -4.05677329	     -1.65636122	      0.83142008	      0.36083320	      6.53063737	      7.19068915	    -25.75677559	     20.62064760	     -2.20012368	      0.35989819	     17.35024568	     23.99780452	     -9.09735308	      9.34791462	    -18.74518668	    -15.87460247	     57.47208271	     -9.22754778	      1.00307707	     12.99671261	     22.27436515	     -9.09735308	    -26.48812181	     10.21109937	      4.04716371	     -9.08916538	     -3.01046486	    -13.20393436	    104.39233462	     90.00000001	      0.00000000	      0.00000000	     -1.55923712	     -8.87330329	    -26.68846575	     48.04811588	     90.00000001	      0.00000000	      0.00000000
      0.60000000	      1.59805055	     -8.69108121	     -4.10638316	     -1.65487872	      0.83121853	      0.36131877	      6.66890408	      7.10232194	    -25.76284745	     20.65890603	     -2.19154243	      0.36056593	     17.46950548	     24.07878017	     -9.06036249	     10.73537023	    -19.04737425	    -16.58318629	     58.17835629	     -9.59863280	      1.01540387	     13.46283203	     21.29130354	     -9.06036249	    -26.57589278	     10.16291000	      4.04519073	     -9.02256350	     -3.08879928	    -13.34758669	    104.31200667	     90.00000001	      0.00000000	      0.00000000	     -1.39978313	     -8.78853409	    -26.57564730	     48.32699610	     90.00000001	      0.00000000	      0.00000000
      0.61000000	      1.37792968	     -8.59503812	     -4.14591392	     -1.65340890	      0.83100954	      0.36172394	      6.80355505	      7.01209157	    -25.82618725	     20.69548345	     -2.18811096	      0.36120433	     17.59288631	     24.21256142	     -9.02494052	     12.10536592	    -19.37670062	    -17.42034978	     58.64273422	     -9.94684399	      1.02350879	     14.08038338	     20.37040787	     -9.02494052	    -26.66332866	     10.11185397	      4.02674000	     -8.94124691	     -3.15093814	    -13.48192321	    104.24591800	     90.00000001	      0.00000000	      0.00000000	     -1.22648639	     -8.72373893	    -26.45854304	     48.56178194	     90.00000001	      0.00000000	      0.00000000
      0.62000000	      1.33598042	     -8.46099520	     -4.16327449	     -1.65194009	      0.83114562	      0.36201545	      6.68752928	      6.82733089	    -25.96979595	     20.63362484	     -2.08520065	      0.36012469	     17.66515587	     24.16912509	     -9.01098903	     13.18860401	    -19.67938251	    -18.12980589	     58.75860211	     -9.96158048	      1.02553107	     14.45754195	     19.94847575	     -9.01098903	    -26.95831328	      9.99998186	      3.97650056	     -8.75924267	     -3.17180654	    -13.54276509	    104.20529464	     90.00000001	      0.00000000	      0.00000000	     -0.98790416	     -8.69275188	    -26.36900232	     48.71258922	     90.00000001	      0.00000000	      0.00000000
      0.63000000	      1.03286040	     -8.47693454	     -4.18701653	     -1.65057539	      0.83077159	      0.36211049	      6.93070574	      6.85510578	    -25.96058449	     20.69237774	     -2.09176650	      0.36115012	     17.78274760	     24.43636522	     -8.98541450	     14.71419405	    -20.03856651	    -19.45641801	     58.79785387	    -10.80606943	      1.02621614	     15.62354011	     19.06309934	     -8.98541450	    -26.97128500	     10.10511339	      3.96155097	     -8.64599410	     -3.22125904	    -13.74814812	    104.12272469	     90.00000001	      0.00000000	      0.00000000	     -0.84031057	     -8.59730727	    -26.21154542	     48.96611834	     90.00000001	      0.00000000	      0.00000000
